# xmcd
#
# Track frame offsets:
#	150
#	14380
#	38420
#	51752
#	69957
#	83692
#	105415
#	119187
#	137927
#	153925
#	168837
#	183680
#	197577
#	212457
#	230127
#	248780
#	266820
#
# Disc length: 3702 seconds
#
# Revision: 0
# Processed by: cddbd v1.5.1PL0 Copyright (c) Steve Scherf et al.
# Submitted via: dBpowerAMP V4.0
#
DISCID=e70e7411
DTITLE=John the Revelator and Friends - Down In The Mud
DYEAR=1900
DGENRE=Blues
TTITLE0=I'm worried
TTITLE1=Something inside of me
TTITLE2=Long grey mare
TTITLE3=Only getting second best
TTITLE4=Let the good times roll
TTITLE5=Before the beginning
TTITLE6=Down in Virginia
TTITLE7=Worried mind
TTITLE8=Jumpin' the gun
TTITLE9=Palace of the king
TTITLE10=Mean mistreatin' mama
TTITLE11=Down in the mud
TTITLE12=Three hundred pounds of joy
TTITLE13=Little red rooster
TTITLE14=I ain't superstitious
TTITLE15=Darkened room
TTITLE16=Depression
EXTD=35th anniversary of band: invited friends from other long-standing Dutch bands to join in this album.
EXTT0=
EXTT1=
EXTT2=
EXTT3=
EXTT4=
EXTT5=
EXTT6=
EXTT7=
EXTT8=
EXTT9=
EXTT10=
EXTT11=
EXTT12=
EXTT13=
EXTT14=
EXTT15=
EXTT16=
PLAYORDER=
